<svg width="500" height="460" viewBox="0 0 500 460" fill="none" xmlns="http://www.w3.org/2000/svg">
<path d="M209.769 428.927C90.1671 408.014 106.171 346.134 68.5291 274.714C30.8871 203.294 26.4441 174.221 63.7241 113.032C101.005 51.8428 181.641 17.3478 256.79 68.5598C331.939 119.771 386.838 103.891 432.25 143.779C477.662 183.667 483.814 239.353 429.923 288.959C376.032 338.565 357.245 454.713 209.769 428.927Z" fill="#96EAC0"/>
<path opacity="0.7" d="M209.769 428.927C90.1671 408.014 106.171 346.134 68.5291 274.714C30.8871 203.294 26.4441 174.221 63.7241 113.032C101.005 51.8428 181.641 17.3478 256.79 68.5598C331.939 119.771 386.838 103.891 432.25 143.779C477.662 183.667 483.814 239.353 429.923 288.959C376.032 338.565 357.245 454.713 209.769 428.927Z" fill="white"/>
<path d="M64.2849 266.919V92.4741H79.1159" stroke="#263238" stroke-miterlimit="10" stroke-linecap="round" stroke-linejoin="round"/>
<path d="M64.2849 295.44V289.077" stroke="#263238" stroke-miterlimit="10" stroke-linecap="round" stroke-linejoin="round"/>
<path d="M117.268 92.4741H270.33V317.768H64.2849" stroke="#263238" stroke-miterlimit="10" stroke-linecap="round" stroke-linejoin="round"/>
<path d="M98.5 92.4741H111.951" stroke="#263238" stroke-miterlimit="10" stroke-linecap="round" stroke-linejoin="round"/>
<path d="M262.582 100.206H72.033V310.036H262.582V100.206Z" stroke="#263238" stroke-miterlimit="10" stroke-linecap="round" stroke-linejoin="round"/>
<path d="M253.72 114.934V196.545H80.895V189.098" stroke="#263238" stroke-miterlimit="10" stroke-linecap="round" stroke-linejoin="round"/>
<path d="M80.895 171.639V108.313H253.72" stroke="#263238" stroke-miterlimit="10" stroke-linecap="round" stroke-linejoin="round"/>
<path d="M80.895 183.373V176.134" stroke="#263238" stroke-miterlimit="10" stroke-linecap="round" stroke-linejoin="round"/>
<path d="M224.537 205.121H262.582" stroke="#263238" stroke-miterlimit="10" stroke-linecap="round" stroke-linejoin="round"/>
<path d="M211.007 205.121H216.39" stroke="#263238" stroke-miterlimit="10" stroke-linecap="round" stroke-linejoin="round"/>
<path d="M72.033 205.121H204.579" stroke="#263238" stroke-miterlimit="10" stroke-linecap="round" stroke-linejoin="round"/>
<path d="M157.731 196.545V192.615H173.665V194.85H167.308V196.545" stroke="#263238" stroke-miterlimit="10" stroke-linecap="round" stroke-linejoin="round"/>
<path d="M72.3618 275.446C72.3618 275.446 75.0028 277.445 76.8618 289.552C76.8618 289.552 80.0618 270.22 83.9398 269.917C87.8188 269.615 87.0268 282.496 87.0268 282.496C87.0268 282.496 87.6738 276.149 90.7128 276.443C93.7518 276.736 90.7128 289.552 90.7128 289.552C90.7128 289.552 94.3548 279.563 97.8118 279.732C101.269 279.901 95.5178 297.836 95.5178 297.836C95.5178 297.836 104.378 291.423 107.966 294.563C111.555 297.703 105.972 305.615 105.972 305.615C105.972 305.615 118.676 302.861 120.654 310.314" stroke="#263238" stroke-miterlimit="10" stroke-linecap="round" stroke-linejoin="round"/>
<path d="M120.654 303.09C120.654 303.09 126.192 299.462 130.544 301.154C130.544 301.154 127.775 296.932 130.544 294.35C133.313 291.769 136.874 301.154 136.874 301.154C136.874 301.154 137.27 285.439 142.808 286.23C148.346 287.021 142.808 301.154 142.808 301.154C142.808 301.154 152.698 292.385 155.072 295.44C157.446 298.494 153.49 303.09 153.49 303.09C153.49 303.09 159.422 301.194 163.775 305.615C163.775 305.615 170.406 298.851 177.772 297.882C177.772 297.882 172.875 283.659 175.248 280.791C177.622 277.923 181.935 293.203 181.935 293.203C181.935 293.203 183.818 283.265 190.006 282.496C190.006 282.496 184.856 279.694 186.382 275.445C187.908 271.197 195.029 276.442 195.029 276.442C195.029 276.442 192.105 268.97 196.732 266.918C201.359 264.866 203.291 273.173 203.291 273.173C203.291 273.173 204.58 264.471 210.022 264.951C215.42 265.427 213.699 275.445 213.699 275.445C213.699 275.445 218.832 267.485 221.58 268.296C227.072 269.917 225.404 282.496 225.404 282.496C225.404 282.496 233.069 277.169 235.044 279.622C237.173 282.268 227.073 289.076 227.073 289.076C227.073 289.076 234.676 289.921 239.41 294.35" stroke="#263238" stroke-miterlimit="10" stroke-linecap="round" stroke-linejoin="round"/>
<path d="M262.582 278.319C262.582 278.319 261.706 270.337 253.72 269.918C245.734 269.499 255.915 287.422 255.915 287.422C255.915 287.422 249.334 281.975 246.967 283.651C244.601 285.326 253.719 294.564 253.719 294.564C253.719 294.564 249.344 290.517 244.728 291.77C240.113 293.023 247.363 305.871 247.363 305.871C247.363 305.871 237.752 303.355 227.07 308.244" stroke="#263238" stroke-miterlimit="10" stroke-linecap="round" stroke-linejoin="round"/>
<path d="M342.063 385.621V285.944H454.302" stroke="#263238" stroke-miterlimit="10" stroke-linecap="round" stroke-linejoin="round"/>
<path d="M450.224 296.254H351.09V389.1" stroke="#263238" stroke-miterlimit="10" stroke-linecap="round" stroke-linejoin="round"/>
<path d="M370.927 346.89V305.615H377.421V314.132H386.082V310.315H393.821V314.945H404.27V305.615H414.956V311.884H420.719V308.243H431.044V332.548" stroke="#263238" stroke-miterlimit="10" stroke-linecap="round" stroke-linejoin="round"/>
<path d="M420.719 311.884V346.89" stroke="#263238" stroke-miterlimit="10" stroke-linecap="round" stroke-linejoin="round"/>
<path d="M415.788 317.115V323.37" stroke="#263238" stroke-miterlimit="10" stroke-linecap="round" stroke-linejoin="round"/>
<path d="M415.788 327.853V353.517" stroke="#263238" stroke-miterlimit="10" stroke-linecap="round" stroke-linejoin="round"/>
<path d="M404.27 314.945V338.009" stroke="#263238" stroke-miterlimit="10" stroke-linecap="round" stroke-linejoin="round"/>
<path d="M404.674 345.607V352.787" stroke="#263238" stroke-miterlimit="10" stroke-linecap="round" stroke-linejoin="round"/>
<path d="M393.821 314.945V327.853" stroke="#263238" stroke-miterlimit="10" stroke-linecap="round" stroke-linejoin="round"/>
<path d="M393.821 335.783V362.959" stroke="#263238" stroke-miterlimit="10" stroke-linecap="round" stroke-linejoin="round"/>
<path d="M386.082 314.132V346.168" stroke="#263238" stroke-miterlimit="10" stroke-linecap="round" stroke-linejoin="round"/>
<path d="M377.421 314.132V326.253" stroke="#263238" stroke-miterlimit="10" stroke-linecap="round" stroke-linejoin="round"/>
<path d="M377.421 332.548V361.36" stroke="#263238" stroke-miterlimit="10" stroke-linecap="round" stroke-linejoin="round"/>
<path d="M370.927 352.787V365.798" stroke="#263238" stroke-miterlimit="10" stroke-linecap="round" stroke-linejoin="round"/>
<path d="M357.541 365.798H436.319" stroke="#263238" stroke-miterlimit="10" stroke-linecap="round" stroke-linejoin="round"/>
<path d="M420.719 365.798V357.474" stroke="#263238" stroke-miterlimit="10" stroke-linecap="round" stroke-linejoin="round"/>
<path d="M404.674 359.673V365.413" stroke="#263238" stroke-miterlimit="10" stroke-linecap="round" stroke-linejoin="round"/>
<path d="M431.922 318.928H439.557" stroke="#263238" stroke-miterlimit="10" stroke-linecap="round" stroke-linejoin="round"/>
<path d="M357.84 373.063H431.044" stroke="#263238" stroke-miterlimit="10" stroke-linecap="round" stroke-linejoin="round"/>
<path d="M373.549 394.225V384.533H387.109V390.781H398.017V402.967H404.27V384.904H418.121V389.1H426.626" stroke="#263238" stroke-miterlimit="10" stroke-linecap="round" stroke-linejoin="round"/>
<path d="M418.121 389.1V399.503" stroke="#263238" stroke-miterlimit="10" stroke-linecap="round" stroke-linejoin="round"/>
<path d="M404.674 407.366V414.366" stroke="#263238" stroke-miterlimit="10" stroke-linecap="round" stroke-linejoin="round"/>
<path d="M398.017 402.967V412.194" stroke="#263238" stroke-miterlimit="10" stroke-linecap="round" stroke-linejoin="round"/>
<path d="M387.109 390.781V396.074" stroke="#263238" stroke-miterlimit="10" stroke-linecap="round" stroke-linejoin="round"/>
<path d="M450.56 73.1699H210.923V238.736H450.56V73.1699Z" fill="#96EAC0" stroke="#263238" stroke-miterlimit="10" stroke-linecap="round" stroke-linejoin="round"/>
<path d="M450.56 73.1699H210.923V89.5389H450.56V73.1699Z" fill="#263238"/>
<path d="M307.992 186.688L302.365 178.869C302.365 178.869 302.324 174.707 302.116 173.98C301.908 173.253 298.496 167.878 298.422 166.605C298.348 165.332 298.187 164.809 298.187 164.809C298.187 164.809 296.438 165.249 296.465 166.318C296.492 167.387 296.668 171.002 296.668 171.002C296.668 171.002 292.108 168.338 291.604 167.635C291.101 166.932 285.533 162.863 285.007 162.251C284.481 161.639 282.366 161.603 282.118 162.218L282.417 162.967L280.669 163.793L281.844 167.268C281.844 167.268 281.057 169.296 281.241 169.727C281.425 170.158 282.05 172.726 282.05 172.726C282.05 172.726 281.665 173.114 281.717 174.479C281.768 175.843 289.236 182.793 290.695 183.537C292.154 184.281 296.116 185.446 296.116 185.446L300.805 191.521L307.992 186.688Z" fill="white" stroke="#263238" stroke-miterlimit="10" stroke-linecap="round" stroke-linejoin="round"/>
<path d="M296.667 171.002C296.667 171.002 295.205 174.057 296.035 177.316" stroke="#263238" stroke-miterlimit="10" stroke-linecap="round" stroke-linejoin="round"/>
<path d="M282.417 162.969C283.932 163.553 285.822 166.368 286.694 167.239C287.566 168.111 289.207 169.172 289.207 169.172" stroke="#263238" stroke-miterlimit="10" stroke-linecap="round" stroke-linejoin="round"/>
<path d="M281.845 167.27C283.084 167.011 283.918 167.487 283.891 168.703C283.864 169.918 286.537 171.753 286.537 171.753" stroke="#263238" stroke-miterlimit="10" stroke-linecap="round" stroke-linejoin="round"/>
<path d="M282.051 172.727C282.051 172.727 282.922 171.18 283.607 171.891C284.292 172.602 284.524 174.424 285.789 174.802" stroke="#263238" stroke-miterlimit="10" stroke-linecap="round" stroke-linejoin="round"/>
<path d="M381.078 178.191C381.078 178.191 361.355 179.406 357 181.197C353.425 182.668 328.319 199.197 328.319 199.197C328.319 199.197 313.551 188.061 309.265 184.236C308.753 183.779 306.628 183.481 306.628 183.481L304.385 181.972L298.848 189.759L300.399 191.909C300.399 191.909 300.652 195.378 301.343 196.246C310.519 207.776 328.106 223.922 330.743 225.505C333.38 227.087 356.803 213.241 356.803 213.241L361.155 238.735H431.045C431.045 238.735 430.861 193.988 427.92 190.56C424.979 187.132 391.282 173.681 391.282 173.681L381.078 178.191Z" fill="#757575" stroke="#263238" stroke-miterlimit="10" stroke-linecap="round" stroke-linejoin="round"/>
<path d="M404.674 162.038C404.674 162.038 398.415 166.243 401.726 179.661C401.726 179.661 392.301 186.403 382.975 179.596C382.975 179.596 385.125 168.899 382.97 166.754" fill="white"/>
<path d="M404.674 162.038C404.674 162.038 398.415 166.243 401.726 179.661C401.726 179.661 392.301 186.403 382.975 179.596C382.975 179.596 385.125 168.899 382.97 166.754" stroke="#263238" stroke-miterlimit="10" stroke-linecap="round" stroke-linejoin="round"/>
<path d="M426.626 192.67C426.626 192.67 418.12 202.459 417.131 219.224" stroke="#263238" stroke-miterlimit="10" stroke-linecap="round" stroke-linejoin="round"/>
<path d="M389.181 135.109C389.181 135.109 383.596 134.269 381.646 141.138C379.695 148.007 382.938 153.664 382.938 153.664L393.197 143.983L389.181 135.109Z" fill="#263238"/>
<path d="M402.755 166.079C409.947 157.498 415.032 143.202 404.228 137.49C383.388 126.471 376.499 147.98 380.012 168.042C381.092 174.21 389.465 171.459 395.604 169.225" fill="white"/>
<path d="M402.755 166.079C409.947 157.498 415.032 143.202 404.228 137.49C383.388 126.471 376.499 147.98 380.012 168.042C381.092 174.21 389.465 171.459 395.604 169.225" stroke="#263238" stroke-miterlimit="10" stroke-linecap="round" stroke-linejoin="round"/>
<path d="M388.205 147.43C388.205 147.43 391.637 148.359 392.513 150.201" stroke="#263238" stroke-miterlimit="10" stroke-linecap="round" stroke-linejoin="round"/>
<path d="M383.219 146.523C383.219 146.523 381.887 145.811 380.635 146.656" stroke="#263238" stroke-miterlimit="10" stroke-linecap="round" stroke-linejoin="round"/>
<path d="M388.139 152.167C388.079 152.783 388.349 153.314 388.742 153.352C389.135 153.39 389.502 152.922 389.562 152.305C389.622 151.689 389.352 151.158 388.959 151.12C388.566 151.082 388.199 151.551 388.139 152.167Z" fill="#263238"/>
<path d="M380.685 150.325C380.625 150.941 380.895 151.472 381.288 151.51C381.681 151.548 382.048 151.079 382.108 150.463C382.168 149.847 381.898 149.316 381.505 149.278C381.112 149.24 380.745 149.709 380.685 150.325Z" fill="#263238"/>
<path d="M399.554 156.179C399.554 156.179 396.325 160.858 394.146 162.359C391.968 163.86 389.422 163.297 389.422 163.297C389.422 163.297 386.654 159.882 382.611 159.831C382.611 159.831 380.64 158.588 379.142 158.643L379.369 153.417C379.369 153.417 376.301 164.614 376.595 168.617C376.889 172.621 386.737 175.409 391.675 174.287C396.614 173.164 399.108 165.499 400.606 158.265C400.725 157.693 399.554 156.179 399.554 156.179Z" fill="#263238"/>
<path d="M379.745 162.408C379.745 162.408 383.642 164.281 387.108 163.84" stroke="white" stroke-miterlimit="10" stroke-linecap="round" stroke-linejoin="round"/>
<path d="M402.782 141.925C404.056 140.882 400.756 136.616 398.939 136.71C397.122 136.804 388.071 137.139 388.071 137.139C388.071 137.139 386.169 127.202 401.371 132.57C403.862 133.45 404.661 135.784 406.891 136.97C409.121 138.156 412.135 144.422 411.283 149.759C410.431 155.096 407.572 164.473 402.404 167.284C402.404 167.284 400.618 167.096 401.703 165.873C406.787 160.144 401.457 149.358 400.606 158.266L398.816 157.205C398.816 157.205 398.73 156.743 399.117 154.294C399.503 151.843 396.788 146.833 402.782 141.925Z" fill="#263238"/>
<path d="M401.95 155.535C401.95 155.535 405.22 151.65 407.197 152.972C409.174 154.294 407.853 158.961 406.787 160.144C405.72 161.327 404.869 161.57 403.4 163.443C401.93 165.315 400.08 164.681 400.349 163.179" fill="white"/>
<path d="M401.95 155.535C401.95 155.535 405.22 151.65 407.197 152.972C409.174 154.294 407.853 158.961 406.787 160.144C405.72 161.327 404.869 161.57 403.4 163.443C401.93 165.315 400.08 164.681 400.349 163.179" stroke="#263238" stroke-miterlimit="10" stroke-linecap="round" stroke-linejoin="round"/>
<path d="M391.982 152.672C392.094 154.842 390.77 156.674 389.024 156.765C387.278 156.855 385.773 155.169 385.66 152.999C385.548 150.829 386.872 148.997 388.618 148.906C390.364 148.816 391.869 150.502 391.982 152.672Z" stroke="#263238" stroke-width="0.5" stroke-miterlimit="10"/>
<path d="M382.785 150.704C382.897 152.874 381.573 154.706 379.827 154.797C378.081 154.887 376.576 153.201 376.463 151.031C376.351 148.861 377.675 147.029 379.421 146.938C381.167 146.848 382.672 148.534 382.785 150.704Z" stroke="#263238" stroke-width="0.5" stroke-miterlimit="10"/>
<path d="M383.73 148.84C383.78 149.814 378.555 155.745 378.492 157.05C378.429 158.355 383.314 158.428 383.314 158.428" fill="white"/>
<path d="M383.73 148.84C383.78 149.814 378.555 155.745 378.492 157.05C378.429 158.355 383.314 158.428 383.314 158.428" stroke="#263238" stroke-miterlimit="10" stroke-linecap="round" stroke-linejoin="round"/>
<path d="M382.785 150.704C382.785 150.704 384.334 150.309 385.63 152.403" stroke="#263238" stroke-width="0.5" stroke-miterlimit="10"/>
<path d="M392.021 153.43L393.698 153.684L403.126 154.343" stroke="#263238" stroke-width="0.5" stroke-miterlimit="10"/>
<path d="M420.719 197.98L418.843 195.649C418.843 195.649 403.038 197.485 395.966 206.921C395.966 206.921 382.945 200.775 371.271 203.767L370.926 207.958L396.521 223.267L406.539 219.107L420.719 197.98Z" fill="white" stroke="#263238" stroke-miterlimit="10" stroke-linecap="round" stroke-linejoin="round"/>
<path d="M423.288 196.59L420.59 214.576C420.59 214.576 405.691 221.122 402.578 226.38L401.843 226.484L398.341 226.968C398.341 226.968 397.623 226.752 396.447 226.415C393.421 225.559 387.333 223.942 382.352 223.328C380.458 223.077 378.72 222.991 377.371 223.138L367.288 207.426C367.288 207.426 382.879 205.273 393.662 208.965L398.816 208.602C398.816 208.602 398.877 208.55 399.006 208.438C400.546 207.183 411.407 198.553 423.288 196.59Z" fill="#96EAC0"/>
<mask id="mask0_127_2500" style="mask-type:luminance" maskUnits="userSpaceOnUse" x="367" y="196" width="57" height="31">
<path d="M423.288 196.59L420.59 214.576C420.59 214.576 405.691 221.122 402.578 226.38L401.843 226.484L398.341 226.968C398.341 226.968 397.623 226.752 396.447 226.415C393.421 225.559 387.333 223.942 382.352 223.328C380.458 223.077 378.72 222.991 377.371 223.138L367.288 207.426C367.288 207.426 382.879 205.273 393.662 208.965L398.816 208.602C398.816 208.602 398.877 208.55 399.006 208.438C400.546 207.183 411.407 198.553 423.288 196.59Z" fill="white"/>
</mask>
<g mask="url(#mask0_127_2500)">
<path opacity="0.3" d="M401.653 222.29L399.007 208.437C400.546 207.183 411.407 198.553 423.288 196.59L420.59 214.576C420.59 214.576 405.691 221.122 402.578 226.38L401.843 226.484L401.653 222.29Z" fill="black" fill-opacity="0.7"/>
</g>
<mask id="mask1_127_2500" style="mask-type:luminance" maskUnits="userSpaceOnUse" x="367" y="196" width="57" height="31">
<path d="M423.288 196.59L420.59 214.576C420.59 214.576 405.691 221.122 402.578 226.38L401.843 226.484L398.341 226.968C398.341 226.968 397.623 226.752 396.447 226.415C393.421 225.559 387.333 223.942 382.352 223.328C380.458 223.077 378.72 222.991 377.371 223.138L367.288 207.426C367.288 207.426 382.879 205.273 393.662 208.965L398.816 208.602C398.816 208.602 398.877 208.55 399.006 208.438C400.546 207.183 411.407 198.553 423.288 196.59Z" fill="white"/>
</mask>
<g mask="url(#mask1_127_2500)">
<path opacity="0.3" d="M396.525 223.267L396.447 226.415C393.421 225.559 387.333 223.942 382.352 223.328C383.355 211.818 393.905 209.985 393.905 209.985L396.525 223.267Z" fill="black" fill-opacity="0.7"/>
</g>
<path d="M423.288 196.59L420.59 214.576C420.59 214.576 405.691 221.122 402.578 226.38L401.843 226.484L398.341 226.968C398.341 226.968 397.623 226.752 396.447 226.415C393.421 225.559 387.333 223.942 382.352 223.328C380.458 223.077 378.72 222.991 377.371 223.138L367.288 207.426C367.288 207.426 382.879 205.273 393.662 208.965L398.816 208.602C398.816 208.602 398.877 208.55 399.006 208.438C400.546 207.183 411.407 198.553 423.288 196.59Z" stroke="#263238" stroke-miterlimit="10" stroke-linecap="round" stroke-linejoin="round"/>
<path d="M401.586 230.778C396.253 230.441 386.088 222.257 386.088 222.257C386.088 222.257 385.001 219.517 383.551 218.067C382.101 216.617 384.034 215.409 384.034 215.409C384.034 215.409 382.343 214.322 381.376 213.718C380.409 213.114 382.101 211.543 382.101 211.543C382.101 211.543 389.35 212.51 390.095 212.268C390.84 212.026 397.807 216.497 398.895 216.617C399.982 216.738 402.343 216.135 403.068 215.531C403.793 214.927 406.023 211.18 407.471 210.455C408.919 209.73 411.46 209.73 410.252 211.301C409.044 212.872 409.285 216.375 408.648 216.859C408.011 217.342 407.057 222.61 407.057 224.425L414.956 231.638L410.461 237.77L401.586 230.778Z" fill="white" stroke="#263238" stroke-miterlimit="10" stroke-linecap="round" stroke-linejoin="round"/>
<path d="M384.034 215.408C384.034 215.408 386.876 215.758 388.13 216.556" stroke="#263238" stroke-miterlimit="10" stroke-linecap="round" stroke-linejoin="round"/>
<path d="M389.384 218.267C389.384 218.267 388.928 220.103 388.814 220.383C388.7 220.662 390.296 222.455 390.068 223.269C389.84 224.083 391.704 226.304 391.704 226.304" stroke="#263238" stroke-miterlimit="10" stroke-linecap="round" stroke-linejoin="round"/>
<path d="M387.56 220.383C387.56 220.383 383.918 218.551 383.551 218.067" stroke="#263238" stroke-miterlimit="10" stroke-linecap="round" stroke-linejoin="round"/>
<path d="M383.693 174.839L387.149 181.809L401.368 173.926L404.499 180.913L389.985 190.122L387.206 182.908L381.56 188.337L379.652 179.564L383.693 174.839Z" fill="#757575" stroke="#263238" stroke-miterlimit="10" stroke-linecap="round" stroke-linejoin="round"/>
<path d="M427.919 190.56C431.374 194.252 443.638 221.306 444.824 238.735H407.44V237.175L403.36 234.791C403.36 234.791 405.894 225.893 413.095 227.281L415.199 230.316L419.847 233.819C419.847 233.819 428.011 234.032 430.385 236.383" fill="#757575"/>
<path d="M427.919 190.56C431.374 194.252 443.638 221.306 444.824 238.735H407.44V237.175L403.36 234.791C403.36 234.791 405.894 225.893 413.095 227.281L415.199 230.316L419.847 233.819C419.847 233.819 428.011 234.032 430.385 236.383" stroke="#263238" stroke-miterlimit="10" stroke-linecap="round" stroke-linejoin="round"/>
<path d="M419.847 233.82C419.847 233.82 424.385 227.285 431.044 230.055" stroke="#263238" stroke-miterlimit="10" stroke-linecap="round" stroke-linejoin="round"/>
<path d="M418.121 223.268C418.121 223.268 421.235 229.156 421.996 231.595" stroke="#263238" stroke-miterlimit="10" stroke-linecap="round" stroke-linejoin="round"/>
<path d="M356.802 213.242C356.802 213.242 354.033 197.098 354.824 191.522L356.802 213.242Z" fill="#757575"/>
<path d="M356.802 213.242C356.802 213.242 354.033 197.098 354.824 191.522" stroke="#263238" stroke-miterlimit="10" stroke-linecap="round" stroke-linejoin="round"/>
<path d="M351.264 197.813C351.264 197.813 352.797 205.743 356.283 209.987L351.264 197.813Z" fill="#757575"/>
<path d="M351.264 197.813C351.264 197.813 352.797 205.743 356.283 209.987" stroke="#263238" stroke-miterlimit="10" stroke-linecap="round" stroke-linejoin="round"/>
<path d="M328.319 199.198C328.319 199.198 332.671 202.8 329.901 211.779L328.319 199.198Z" fill="#757575"/>
<path d="M328.319 199.198C328.319 199.198 332.671 202.8 329.901 211.779" stroke="#263238" stroke-miterlimit="10" stroke-linecap="round" stroke-linejoin="round"/>
<path d="M386.493 188.615C386.493 189.133 386.073 189.553 385.555 189.553C385.037 189.553 384.618 189.133 384.618 188.615C384.618 188.097 385.038 187.677 385.555 187.677C386.073 187.678 386.493 188.098 386.493 188.615Z" fill="#263238"/>
<path d="M384.034 202.382C384.552 202.382 384.972 201.962 384.972 201.444C384.972 200.926 384.552 200.506 384.034 200.506C383.516 200.506 383.096 200.926 383.096 201.444C383.096 201.962 383.516 202.382 384.034 202.382Z" fill="#263238"/>
<path d="M382.613 231.247C383.131 231.247 383.551 230.827 383.551 230.309C383.551 229.791 383.131 229.371 382.613 229.371C382.095 229.371 381.675 229.791 381.675 230.309C381.675 230.827 382.095 231.247 382.613 231.247Z" fill="#263238"/>
<path d="M260.942 145.476H272.724L278.615 135.272L272.724 125.068H260.942L255.051 135.272L260.942 145.476Z" stroke="#263238" stroke-miterlimit="10" stroke-linecap="round" stroke-linejoin="round"/>
<path d="M259.231 167.86L253.34 157.656H241.557" stroke="#263238" stroke-miterlimit="10" stroke-linecap="round" stroke-linejoin="round"/>
<path d="M243.14 135.272H254.922L260.813 125.068L254.922 114.864H243.14L237.248 125.068L243.14 135.272Z" stroke="#263238" stroke-miterlimit="10" stroke-linecap="round" stroke-linejoin="round"/>
<path d="M260.942 125.068H272.724L278.615 114.864L272.724 104.66H260.942L255.051 114.864L260.942 125.068Z" stroke="#263238" stroke-miterlimit="10" stroke-linecap="round" stroke-linejoin="round"/>
<path d="M259.231 125.068C259.231 124.194 259.939 123.486 260.814 123.486C261.688 123.486 262.396 124.194 262.396 125.068C262.396 125.942 261.688 126.65 260.814 126.65C259.939 126.65 259.231 125.942 259.231 125.068Z" fill="#263238"/>
<path d="M236.21 105.232C237.084 105.232 237.792 104.524 237.792 103.65C237.792 102.776 237.084 102.068 236.21 102.068C235.336 102.068 234.628 102.776 234.628 103.65C234.628 104.524 235.336 105.232 236.21 105.232Z" fill="#263238"/>
<path d="M257.648 167.86C257.648 166.986 258.356 166.277 259.23 166.277C260.104 166.277 260.813 166.985 260.813 167.86C260.813 168.734 260.105 169.442 259.23 169.442C258.357 169.442 257.648 168.734 257.648 167.86Z" fill="#263238"/>
<path d="M241.557 159.238C242.431 159.238 243.139 158.529 243.139 157.656C243.139 156.782 242.431 156.074 241.557 156.074C240.683 156.074 239.975 156.782 239.975 157.656C239.975 158.529 240.683 159.238 241.557 159.238Z" fill="#263238"/>
<path d="M290.01 115.133C290.01 114.259 290.718 113.551 291.592 113.551C292.466 113.551 293.174 114.26 293.174 115.133C293.174 116.007 292.466 116.716 291.592 116.716C290.719 116.715 290.01 116.007 290.01 115.133Z" fill="#263238"/>
<path d="M253.219 159.238C254.093 159.238 254.801 158.529 254.801 157.656C254.801 156.782 254.093 156.074 253.219 156.074C252.345 156.074 251.637 156.782 251.637 157.656C251.637 158.529 252.345 159.238 253.219 159.238Z" fill="#263238"/>
<path d="M277.033 115.133C277.033 114.259 277.741 113.551 278.615 113.551C279.489 113.551 280.197 114.26 280.197 115.133C280.197 116.007 279.489 116.716 278.615 116.716C277.741 116.715 277.033 116.007 277.033 115.133Z" fill="#263238"/>
<path d="M259.231 145.476C259.231 144.602 259.939 143.894 260.814 143.894C261.688 143.894 262.396 144.603 262.396 145.476C262.396 146.35 261.688 147.059 260.814 147.059C259.939 147.058 259.231 146.35 259.231 145.476Z" fill="#263238"/>
<path d="M278.615 115.133H291.593" stroke="#263238" stroke-miterlimit="10" stroke-linecap="round" stroke-linejoin="round"/>
<path d="M260.813 145.476L253.219 157.656" stroke="#263238" stroke-miterlimit="10" stroke-linecap="round" stroke-linejoin="round"/>
<path d="M243.14 114.864L236.21 103.65" stroke="#263238" stroke-miterlimit="10" stroke-linecap="round" stroke-linejoin="round"/>
<path d="M229.558 194.79C230.619 193.836 231.815 193.031 233.098 192.406C233.175 193.05 233.843 193.561 234.485 193.466C235.201 193.36 236.003 192.664 236.517 193.174C236.716 193.372 236.76 193.69 236.967 193.88C237.607 194.466 238.698 193.195 239.418 193.679C239.608 193.807 239.714 194.034 239.907 194.156C240.194 194.338 240.567 194.237 240.895 194.146C242.659 193.66 244.516 193.669 246.346 193.681C249.145 193.7 251.944 193.718 254.744 193.737C254.531 193.627 254.317 193.518 254.104 193.408" stroke="#263238" stroke-miterlimit="10" stroke-linecap="round" stroke-linejoin="round"/>
<path d="M229.111 201.789C229.254 201.141 229.893 200.641 230.556 200.657C231.219 200.674 231.833 201.206 231.942 201.861C232.349 201.675 232.675 201.318 232.822 200.895C233.363 202.115 235.029 202.209 236.36 202.115C238.337 201.975 240.315 201.836 242.292 201.696C244.065 201.571 246.151 201.249 246.951 199.661C247.833 201.248 248.195 203.119 247.969 204.92C248.518 203.614 249.238 202.379 250.105 201.259C250.281 201.899 250.457 202.54 250.634 203.18C254.764 200.294 260.414 202.164 265.415 201.547" stroke="#263238" stroke-miterlimit="10" stroke-linecap="round" stroke-linejoin="round"/>
<path d="M229.641 211.061C229.589 210.695 229.864 210.314 230.227 210.247C230.345 211.007 231.318 211.372 232.052 211.142C232.786 210.912 233.32 210.291 233.811 209.699C234.385 210.189 235.391 210.017 235.769 209.363C236.216 210.084 236.584 210.853 236.866 211.653C237.409 210.268 239.244 210.05 240.732 210.054C244.741 210.065 248.75 210.076 252.759 210.087" stroke="#263238" stroke-miterlimit="10" stroke-linecap="round" stroke-linejoin="round"/>
<path d="M322.403 102.215C319.555 101.981 316.761 103.144 314.356 104.687C311.478 106.534 308.741 109.631 309.46 112.974C310.201 116.424 314.124 118.078 317.588 118.753C320.569 119.334 323.611 119.603 326.648 119.555C327.818 119.536 328.996 119.47 330.132 119.185C331.294 118.894 332.386 118.381 333.47 117.872C336.049 116.659 338.628 115.447 341.208 114.234C342.276 113.732 343.462 113.093 343.753 111.949C344.112 110.536 342.905 109.231 341.722 108.378C337.451 105.299 331.99 103.918 326.769 104.6" stroke="#263238" stroke-miterlimit="10" stroke-linecap="round" stroke-linejoin="round"/>
<path d="M313.207 109.699C313.66 109.193 314.255 108.816 314.906 108.621C314.832 109.014 314.763 109.441 314.943 109.798C315.123 110.155 315.666 110.343 315.93 110.042C316.147 109.793 316.261 109.259 316.556 109.406C316.676 109.676 316.797 109.945 316.917 110.215C317.408 110.041 317.787 109.638 318.266 109.431C318.797 109.202 319.398 109.235 319.975 109.265C324.265 109.49 328.574 109.36 332.842 108.877" stroke="#263238" stroke-miterlimit="10" stroke-linecap="round" stroke-linejoin="round"/>
<path d="M320.215 113.947C320.333 113.538 320.658 113.195 321.06 113.056C320.831 113.309 321.116 113.739 321.452 113.795C321.788 113.851 322.116 113.688 322.443 113.59C322.817 113.479 323.209 113.451 323.598 113.425C326.03 113.26 328.462 113.095 330.894 112.93" stroke="#263238" stroke-miterlimit="10" stroke-linecap="round" stroke-linejoin="round"/>
<path d="M323.32 124.16C321.229 131.618 316.793 138.399 310.798 143.304C304.803 148.209 297.277 151.213 289.553 151.786" stroke="#263238" stroke-miterlimit="10" stroke-linecap="round" stroke-linejoin="round"/>
<path d="M289.668 149.624C288.256 150.492 286.99 151.597 285.939 152.879C287.181 152.599 288.564 153.098 289.343 154.105" stroke="#263238" stroke-miterlimit="10" stroke-linecap="round" stroke-linejoin="round"/>
<path d="M320.924 151.96C321.227 152.629 321.53 153.299 321.832 153.968C322.266 153.456 322.699 152.944 323.133 152.432C323.397 152.572 323.504 152.887 323.604 153.169C323.704 153.451 323.854 153.76 324.142 153.842C324.43 153.924 324.772 153.542 324.557 153.334C324.924 153.583 325.402 153.661 325.829 153.541C326.016 153.488 326.192 153.4 326.38 153.352C326.604 153.294 326.839 153.294 327.071 153.295C331.574 153.302 336.077 153.309 340.58 153.316" stroke="#263238" stroke-miterlimit="10" stroke-linecap="round" stroke-linejoin="round"/>
<path d="M321.549 163.025C321.665 162.285 322.88 162.077 323.235 162.737C323.3 162.858 323.34 162.998 323.439 163.093C323.65 163.296 324.014 163.191 324.23 162.993C324.446 162.795 324.588 162.522 324.818 162.341C325.448 161.845 326.348 162.229 327.121 162.439C328.096 162.704 329.126 162.654 330.135 162.601C332.694 162.467 335.252 162.333 337.811 162.198" stroke="#263238" stroke-miterlimit="10" stroke-linecap="round" stroke-linejoin="round"/>
<path d="M321.791 171.503C322.301 171.527 322.801 171.155 322.925 170.659C323.175 170.703 323.388 170.913 323.436 171.162C323.803 170.938 324.12 170.632 324.357 170.273C329.304 170.33 334.251 170.342 339.198 170.31" stroke="#263238" stroke-miterlimit="10" stroke-linecap="round" stroke-linejoin="round"/>
<path d="M321.785 177.853C322.386 178.116 323.168 177.838 323.469 177.255C323.786 177.511 324.011 177.88 324.094 178.279C324.484 178.011 324.988 177.918 325.448 178.028C325.645 178.075 325.831 178.157 326.024 178.215C326.498 178.356 327.001 178.35 327.494 178.343C333.239 178.257 338.983 178.172 344.727 178.087" stroke="#263238" stroke-miterlimit="10" stroke-linecap="round" stroke-linejoin="round"/>
<path d="M275.491 218.275C278.099 218.024 280.708 217.772 283.316 217.521C283.451 217.508 283.598 217.49 283.696 217.396C283.816 217.282 283.823 217.097 283.823 216.931C283.821 215.258 283.82 213.584 283.818 211.911C283.818 211.744 283.812 211.56 283.7 211.436C283.585 211.307 283.395 211.283 283.223 211.268C281.519 211.121 277.691 210.265 276.222 211.418C274.707 212.608 275.496 216.568 275.491 218.275Z" stroke="#263238" stroke-miterlimit="10" stroke-linecap="round" stroke-linejoin="round"/>
<path d="M277.729 213.823C277.827 214.294 277.924 214.765 278.022 215.235C279.208 214.99 280.431 214.927 281.635 215.048" stroke="#263238" stroke-miterlimit="10" stroke-linecap="round" stroke-linejoin="round"/>
<path d="M281.723 220.444C281.36 220.873 281.828 221.665 282.379 221.553C282.909 221.446 283.326 220.737 283.817 220.963" stroke="#263238" stroke-miterlimit="10" stroke-linecap="round" stroke-linejoin="round"/>
<path d="M276.329 208.907C276.659 208.227 277.912 208.453 277.985 209.205C278.612 209.129 279.239 209.053 279.867 208.977" stroke="#263238" stroke-miterlimit="10" stroke-linecap="round" stroke-linejoin="round"/>
<path d="M291.926 225.494C294.604 225.514 297.282 225.513 299.959 225.491C302.033 225.474 304.115 225.444 306.162 225.115C306.388 225.079 306.633 225.029 306.784 224.856C306.945 224.673 306.953 224.406 306.953 224.162C306.956 220.109 306.959 216.056 306.962 212.003C306.962 211.863 294.709 211.465 293.278 212.459C290.36 214.484 291.925 222.384 291.926 225.494Z" stroke="#263238" stroke-miterlimit="10" stroke-linecap="round" stroke-linejoin="round"/>
<path d="M296.275 215.605C296.911 215.62 297.547 215.634 298.183 215.649C297.774 216.928 297.354 218.231 296.565 219.318C296.308 219.672 295.998 220.111 296.19 220.505C297.175 220.662 298.355 220.751 298.994 219.985C299.812 219.005 299.088 217.409 299.709 216.293C299.788 217.083 299.867 217.872 299.946 218.662C300.224 218.925 300.502 219.188 300.781 219.451C301.014 219.672 301.26 219.9 301.569 219.989C301.877 220.079 302.266 219.981 302.4 219.689" stroke="#263238" stroke-miterlimit="10" stroke-linecap="round" stroke-linejoin="round"/>
<path d="M301.83 227.528C302.464 227.304 302.716 228.481 303.367 228.649C304.007 228.814 304.385 227.964 304.921 227.579C305.428 227.215 306.21 227.317 306.606 227.8" stroke="#263238" stroke-miterlimit="10" stroke-linecap="round" stroke-linejoin="round"/>
<path d="M296.668 208.286C297.267 208.444 297.034 209.44 297.483 209.867C297.948 210.309 298.68 209.846 299.189 209.456C299.698 209.065 300.633 208.867 300.815 209.482" stroke="#263238" stroke-miterlimit="10" stroke-linecap="round" stroke-linejoin="round"/>
<path d="M450.56 238.507H210.923V255.431H450.56V238.507Z" fill="#BFBFBF" stroke="#263238" stroke-miterlimit="10" stroke-linecap="round" stroke-linejoin="round"/>
<path d="M406.218 245.167H249.637V248.771H406.218V245.167Z" fill="#263238"/>
<path d="M338.442 246.969C338.442 248.421 337.265 249.598 335.813 249.598C334.361 249.598 333.184 248.421 333.184 246.969C333.184 245.517 334.361 244.34 335.813 244.34C337.265 244.34 338.442 245.517 338.442 246.969Z" fill="#96EAC0" stroke="#263238" stroke-miterlimit="10" stroke-linecap="round" stroke-linejoin="round"/>
<path d="M442.795 243.731H436.319V250.207H442.795V243.731Z" stroke="#263238" stroke-miterlimit="10" stroke-linecap="round" stroke-linejoin="round"/>
<path d="M431.921 243.731H425.445V250.207H431.921V243.731Z" stroke="#263238" stroke-miterlimit="10" stroke-linecap="round" stroke-linejoin="round"/>
<path d="M229.635 243.66H218.341V250.278H229.635V243.66Z" stroke="#263238" stroke-miterlimit="10" stroke-linecap="round" stroke-linejoin="round"/>
<path d="M218.209 81.354H260.813" stroke="white" stroke-miterlimit="10" stroke-linecap="round" stroke-linejoin="round"/>
<path d="M444.487 81.2007C444.487 82.5827 443.367 83.7027 441.985 83.7027C440.603 83.7027 439.483 82.5827 439.483 81.2007C439.483 79.8187 440.603 78.6987 441.985 78.6987C443.367 78.6997 444.487 79.8197 444.487 81.2007Z" stroke="white" stroke-miterlimit="10" stroke-linecap="round" stroke-linejoin="round"/>
<path d="M434.601 81.354C434.601 82.736 433.481 83.8561 432.099 83.8561C430.717 83.8561 429.597 82.736 429.597 81.354C429.597 79.972 430.717 78.8521 432.099 78.8521C433.481 78.8521 434.601 79.972 434.601 81.354Z" stroke="white" stroke-miterlimit="10" stroke-linecap="round" stroke-linejoin="round"/>
<path d="M424.714 81.5059C424.714 82.8879 423.594 84.0079 422.212 84.0079C420.83 84.0079 419.71 82.8879 419.71 81.5059C419.71 80.1239 420.83 79.0039 422.212 79.0039C423.594 79.0039 424.714 80.1239 424.714 81.5059Z" stroke="white" stroke-miterlimit="10" stroke-linecap="round" stroke-linejoin="round"/>
<path d="M234.77 412.2H211.09L198.27 408.14L194.24 406.87L193.07 418.94L52.8501 419.2C52.8501 419.2 54.9901 413.8 58.4801 405.88C66.0101 388.79 79.8101 359.93 91.8801 348.14C101.68 338.57 126.16 338.3 126.16 338.3C126.16 338.3 130.09 335.54 134.59 335.76C139.09 335.98 173.11 339.67 175.22 340.73C177.33 341.78 178.91 344.15 178.91 344.15C178.91 344.15 190.83 338.88 202.54 343.63C214.25 348.37 234.77 412.2 234.77 412.2Z" fill="#BFBFBF"/>
<mask id="mask2_127_2500" style="mask-type:luminance" maskUnits="userSpaceOnUse" x="52" y="335" width="183" height="85">
<path d="M234.77 412.2H211.09L198.27 408.14L194.24 406.87L193.07 418.94L52.8501 419.2C52.8501 419.2 54.9901 413.8 58.4801 405.88C66.0101 388.79 79.8101 359.93 91.8801 348.14C101.68 338.57 126.16 338.3 126.16 338.3C126.16 338.3 130.09 335.54 134.59 335.76C139.09 335.98 173.11 339.67 175.22 340.73C177.33 341.78 178.91 344.15 178.91 344.15C178.91 344.15 190.83 338.88 202.54 343.63C214.25 348.37 234.77 412.2 234.77 412.2Z" fill="white"/>
</mask>
<g mask="url(#mask2_127_2500)">
<path opacity="0.2" d="M198.27 408.14L194.24 406.87L193.07 418.94L52.8501 419.2C52.8501 419.2 54.9901 413.8 58.4801 405.88C63.8901 405.75 69.9901 405.47 69.9901 405.47L73.1301 395.2C73.1301 395.2 78.0601 389.99 84.2201 393.06C84.2201 393.06 83.4401 390.45 85.8101 388.87C88.1901 387.29 97.9501 392.36 97.9501 392.36C97.9501 392.36 102.65 383.4 104.25 377.47C105.86 371.55 106.91 385.8 106.91 385.8C106.91 385.8 110.87 379.26 110.87 377.47C110.87 375.68 118.25 395.2 118.25 395.2C118.25 395.2 128.01 396.37 130.65 397.37C133.29 398.36 159.57 399.41 168.03 397.37C176.5 395.33 162.03 407.33 162.03 407.33C162.03 407.33 176.89 412.34 185.29 409.05C193.68 405.75 197.45 402.26 197.45 402.26C197.45 402.26 197.83 404.73 198.27 408.14Z" fill="black" fill-opacity="0.7"/>
</g>
<path d="M234.77 412.2H211.09L198.27 408.14L194.24 406.87L193.07 418.94L52.8501 419.2C52.8501 419.2 54.9901 413.8 58.4801 405.88C66.0101 388.79 79.8101 359.93 91.8801 348.14C101.68 338.57 126.16 338.3 126.16 338.3C126.16 338.3 130.09 335.54 134.59 335.76C139.09 335.98 173.11 339.67 175.22 340.73C177.33 341.78 178.91 344.15 178.91 344.15C178.91 344.15 190.83 338.88 202.54 343.63C214.25 348.37 234.77 412.2 234.77 412.2Z" stroke="#263238" stroke-miterlimit="10" stroke-linecap="round" stroke-linejoin="round"/>
<path d="M190.549 381.36C190.549 381.36 188.233 384.895 183.463 389.466" stroke="#263238" stroke-miterlimit="10" stroke-linecap="round" stroke-linejoin="round"/>
<path d="M176.532 395.302C168.537 401.215 157.033 407.174 141.791 409.045" stroke="#263238" stroke-miterlimit="10" stroke-linecap="round" stroke-linejoin="round"/>
<path d="M220.319 391.89C220.319 391.89 223.96 389.632 227.151 390.365C230.341 391.098 232.979 394.263 232.979 394.263C232.979 394.263 259.464 392.064 265.474 392.241C271.484 392.417 284.935 396.373 284.935 396.373C284.935 396.373 291.452 395.054 292.149 395.318C292.847 395.582 290.737 417.78 290.737 417.78C290.737 417.78 208.979 417.78 204.759 417.78C200.539 417.78 197.41 411.671 194.245 406.866C194.245 406.866 202.543 380.74 202.543 348.135" fill="#BFBFBF"/>
<mask id="mask3_127_2500" style="mask-type:luminance" maskUnits="userSpaceOnUse" x="194" y="348" width="99" height="70">
<path d="M220.319 391.89C220.319 391.89 223.96 389.632 227.151 390.365C230.341 391.098 232.979 394.263 232.979 394.263C232.979 394.263 259.464 392.064 265.474 392.241C271.484 392.417 284.935 396.373 284.935 396.373C284.935 396.373 291.452 395.054 292.149 395.318C292.847 395.582 290.737 417.78 290.737 417.78C290.737 417.78 208.979 417.78 204.759 417.78C200.539 417.78 197.41 411.671 194.245 406.866C194.245 406.866 202.543 380.74 202.543 348.135" fill="white"/>
</mask>
<g mask="url(#mask3_127_2500)">
<path opacity="0.2" d="M243.92 417.78H204.76C200.54 417.78 197.41 411.67 194.24 406.87C194.24 406.87 198.49 393.49 200.91 373.93C200.91 373.93 205.07 380.1 202.54 387.25L205.07 380.1C205.07 380.1 207.5 387.76 205.07 394.25C202.65 400.74 200.91 402.6 200.91 402.6C200.91 402.6 203.88 406.52 207.09 405.47C210.3 404.43 213.73 410.78 213.73 410.78C213.73 410.78 221.37 411.07 222.96 410.78C223.69 410.65 233.58 414.06 243.92 417.78Z" fill="black" fill-opacity="0.7"/>
</g>
<path d="M220.319 391.89C220.319 391.89 223.96 389.632 227.151 390.365C230.341 391.098 232.979 394.263 232.979 394.263C232.979 394.263 259.464 392.064 265.474 392.241C271.484 392.417 284.935 396.373 284.935 396.373C284.935 396.373 291.452 395.054 292.149 395.318C292.847 395.582 290.737 417.78 290.737 417.78C290.737 417.78 208.979 417.78 204.759 417.78C200.539 417.78 197.41 411.671 194.245 406.866C194.245 406.866 202.543 380.74 202.543 348.135" stroke="#263238" stroke-miterlimit="10" stroke-linecap="round" stroke-linejoin="round"/>
<path d="M171.16 322.79V344.15C171.16 344.15 167.51 346.7 162.76 349.24C156.93 352.33 149.45 355.39 145 353.65C136.93 350.48 131.7 338.3 131.7 338.3C140.41 331.66 141.46 322.79 142.78 318.57L171.16 322.79Z" fill="white" stroke="#263238" stroke-miterlimit="10" stroke-linecap="round" stroke-linejoin="round"/>
<path d="M127.483 339.934C127.483 339.934 134.868 356.022 143.835 358.923C152.802 361.824 168.034 350.483 168.034 350.483" stroke="#263238" stroke-miterlimit="10" stroke-linecap="round" stroke-linejoin="round"/>
<path d="M87.1321 359.398C87.1321 359.398 101.11 370.296 103.484 373.972C105.858 377.648 103.484 412.198 103.484 412.198" stroke="#263238" stroke-miterlimit="10" stroke-linecap="round" stroke-linejoin="round"/>
<path d="M68.07 394.568C76.318 389.252 82.121 395.074 87.132 396.119C92.1431 397.164 103.22 391.513 111.528 396.119C119.836 400.725 119.836 399.142 119.836 399.142C119.836 399.142 128.539 405.778 124.055 419.066L52.847 419.197C52.847 419.197 48.1 409.044 63.712 394.567" fill="#BFBFBF"/>
<path d="M68.07 394.568C76.318 389.252 82.121 395.074 87.132 396.119C92.143 397.164 103.22 391.513 111.528 396.119C119.836 400.725 119.836 399.142 119.836 399.142C119.836 399.142 128.539 405.778 124.055 419.066L52.847 419.197C52.847 419.197 48.1 409.044 63.712 394.567" stroke="#263238" stroke-miterlimit="10" stroke-linecap="round" stroke-linejoin="round"/>
<path d="M137.835 373.972L156.629 408.34L157.22 412.197L154.253 409.532L134.868 375.406C134.868 375.406 135.758 373.626 137.835 373.972Z" fill="#96EAC0" stroke="#263238" stroke-miterlimit="10" stroke-linecap="round" stroke-linejoin="round"/>
<path d="M120.033 400.923C120.033 400.923 122.802 400.132 124.385 400.132C125.967 400.132 135.749 392.898 139.067 392.361C142.385 391.824 148.359 396.769 151.405 397.56C154.451 398.351 154.253 402.307 156.034 403.89C157.814 405.472 155.243 407.253 153.067 405.472C153.067 405.472 153.66 407.474 152.276 409.045C152.276 409.045 152.869 411.209 152.276 412.198H117.03C117.03 412.198 116.472 405.473 120.033 400.923Z" fill="white" stroke="#263238" stroke-miterlimit="10" stroke-linecap="round" stroke-linejoin="round"/>
<path d="M153.066 405.473L149.901 402.341L141.791 399.736" stroke="#263238" stroke-miterlimit="10" stroke-linecap="round" stroke-linejoin="round"/>
<path d="M152.275 409.045L147.429 406.867L140.802 405.621" stroke="#263238" stroke-miterlimit="10" stroke-linecap="round" stroke-linejoin="round"/>
<path d="M140.802 410.781L147.429 411.078L152.275 412.198" stroke="#263238" stroke-miterlimit="10" stroke-linecap="round" stroke-linejoin="round"/>
<path d="M139.067 392.361C136.055 394.989 139.022 397.758 137.638 399.736C136.253 401.714 134.671 402.307 135.858 405.472" stroke="#263238" stroke-miterlimit="10" stroke-linecap="round" stroke-linejoin="round"/>
<path d="M181.876 413.867H342.063C342.063 416.811 339.676 419.198 336.732 419.198H194.705C194.15 419.198 193.598 419.111 193.069 418.941L181.657 415.261C180.882 415.01 181.062 413.867 181.876 413.867Z" fill="#96EAC0"/>
<mask id="mask4_127_2500" style="mask-type:luminance" maskUnits="userSpaceOnUse" x="181" y="413" width="162" height="7">
<path d="M181.876 413.867H342.063C342.063 416.811 339.676 419.198 336.732 419.198H194.705C194.15 419.198 193.598 419.111 193.069 418.941L181.657 415.261C180.882 415.01 181.062 413.867 181.876 413.867Z" fill="white"/>
</mask>
<g mask="url(#mask4_127_2500)">
<path opacity="0.2" d="M342.06 413.87C342.06 415.34 341.46 416.67 340.5 417.64C340.45 417.69 340.39 417.74 340.34 417.78C339.39 418.66 338.12 419.2 336.73 419.2H194.71C194.15 419.2 193.6 419.11 193.07 418.94L181.66 415.26C180.88 415.01 181.06 413.87 181.88 413.87H342.06Z" fill="black" fill-opacity="0.7"/>
</g>
<mask id="mask5_127_2500" style="mask-type:luminance" maskUnits="userSpaceOnUse" x="181" y="413" width="162" height="7">
<path d="M181.876 413.867H342.063C342.063 416.811 339.676 419.198 336.732 419.198H194.705C194.15 419.198 193.598 419.111 193.069 418.941L181.657 415.261C180.882 415.01 181.062 413.867 181.876 413.867Z" fill="white"/>
</mask>
<g mask="url(#mask5_127_2500)">
<path opacity="0.2" d="M342.06 413.87C342.06 415.34 341.46 416.67 340.5 417.64C340.45 417.69 340.39 417.74 340.34 417.78H248.69C246.53 417.78 244.77 416.03 244.77 413.87H342.06Z" fill="black" fill-opacity="0.7"/>
</g>
<path d="M181.876 413.867H342.063C342.063 416.811 339.676 419.198 336.732 419.198H194.705C194.15 419.198 193.598 419.111 193.069 418.941L181.657 415.261C180.882 415.01 181.062 413.867 181.876 413.867Z" stroke="#263238" stroke-miterlimit="10" stroke-linecap="round" stroke-linejoin="round"/>
<path d="M244.774 413.867C244.774 416.029 246.526 417.781 248.688 417.781H263.901" stroke="#263238" stroke-miterlimit="10" stroke-linecap="round" stroke-linejoin="round"/>
<path d="M370.73 348.12C370.72 348.16 370.71 348.21 370.7 348.25L352.09 413.1C351.62 414.73 349.86 416.05 348.16 416.05H251.06C249.36 416.05 248.36 414.73 248.82 413.1L267.44 348.25C267.91 346.62 269.66 345.3 271.37 345.3H368.47C370.12 345.3 371.12 346.55 370.73 348.12Z" fill="#96EAC0"/>
<mask id="mask6_127_2500" style="mask-type:luminance" maskUnits="userSpaceOnUse" x="248" y="345" width="123" height="72">
<path d="M370.73 348.12C370.72 348.16 370.71 348.21 370.7 348.25L352.09 413.1C351.62 414.73 349.86 416.05 348.16 416.05H251.06C249.36 416.05 248.36 414.73 248.82 413.1L267.44 348.25C267.91 346.62 269.66 345.3 271.37 345.3H368.47C370.12 345.3 371.12 346.55 370.73 348.12Z" fill="white"/>
</mask>
<g mask="url(#mask6_127_2500)">
<path opacity="0.4" d="M370.73 348.12C370.72 348.16 370.71 348.21 370.7 348.25L352.09 413.1C351.62 414.73 349.86 416.05 348.16 416.05H251.7C251.71 416.01 251.72 415.96 251.73 415.92L270.34 351.07C270.81 349.44 272.57 348.12 274.27 348.12H370.73Z" fill="white"/>
</g>
<path d="M370.73 348.12C370.72 348.16 370.71 348.21 370.7 348.25L352.09 413.1C351.62 414.73 349.86 416.05 348.16 416.05H251.06C249.36 416.05 248.36 414.73 248.82 413.1L267.44 348.25C267.91 346.62 269.66 345.3 271.37 345.3H368.47C370.12 345.3 371.12 346.55 370.73 348.12Z" stroke="#263238" stroke-miterlimit="10" stroke-linecap="round" stroke-linejoin="round"/>
<path d="M316.757 381.869C315.208 385.207 311.454 387.741 307.792 387.741C303.709 387.741 301.303 384.583 302.424 380.679C303.544 376.776 307.766 373.609 311.849 373.609H311.956C311.774 373.994 311.623 374.397 311.505 374.807C310.394 378.676 312.736 381.809 316.757 381.869Z" fill="white" stroke="#263238" stroke-miterlimit="10" stroke-linecap="round" stroke-linejoin="round"/>
<path d="M252.198 412.867L270.369 349.57C270.641 348.622 271.666 347.853 272.657 347.853H366.783" stroke="#263238" stroke-miterlimit="10" stroke-linecap="round" stroke-linejoin="round"/>
<path d="M207.09 419.2H73.1301L74.7501 415.82C74.7501 415.82 87.3701 416.98 97.4001 413.87C101.83 412.49 108.65 411.85 115.49 411.95C119.8 412.01 130.29 412.05 136.8 412.02H136.81C139.13 412.01 140.95 411.99 141.79 411.96C142.12 411.94 142.45 411.94 142.77 411.94C144.69 411.92 146.53 412.1 148.3 412.46C149.92 412.28 151.68 412.17 153.59 412.2C156.68 412.24 169.97 412.15 173.59 412.2C178.36 412.26 183.87 413.18 189.1 413.92C189.15 413.9 189.2 413.89 189.24 413.87L189.27 413.94C195.59 414.82 201.51 415.42 205.24 413.87L207.09 419.2Z" fill="white"/>
<mask id="mask7_127_2500" style="mask-type:luminance" maskUnits="userSpaceOnUse" x="73" y="411" width="135" height="9">
<path d="M207.09 419.2H73.1301L74.7501 415.82C74.7501 415.82 87.3701 416.98 97.4001 413.87C101.83 412.49 108.65 411.85 115.49 411.95C119.8 412.01 130.29 412.05 136.8 412.02H136.81C139.13 412.01 140.95 411.99 141.79 411.96C142.12 411.94 142.45 411.94 142.77 411.94C144.69 411.92 146.53 412.1 148.3 412.46C149.92 412.28 151.68 412.17 153.59 412.2C156.68 412.24 169.97 412.15 173.59 412.2C178.36 412.26 183.87 413.18 189.1 413.92C189.15 413.9 189.2 413.89 189.24 413.87L189.27 413.94C195.59 414.82 201.51 415.42 205.24 413.87L207.09 419.2Z" fill="white"/>
</mask>
<g mask="url(#mask7_127_2500)">
<path opacity="0.4" d="M207.09 419.2H103.22L105.33 415.57C105.33 415.57 111 418.88 116.54 416.53C122.08 414.19 127.66 413.03 136.8 412.02H136.81C138.86 411.79 140.88 411.8 142.77 411.94C149.32 412.43 154.38 414.58 154.38 414.58C154.38 414.58 159.83 412.2 173.59 412.2C178.36 412.26 183.87 413.18 189.1 413.92C189.15 413.9 189.2 413.89 189.24 413.87L189.27 413.94C195.59 414.82 201.51 415.42 205.24 413.87L207.09 419.2Z" fill="#96EAC0"/>
</g>
<mask id="mask8_127_2500" style="mask-type:luminance" maskUnits="userSpaceOnUse" x="73" y="411" width="135" height="9">
<path d="M207.09 419.2H73.1301L74.7501 415.82C74.7501 415.82 87.3701 416.98 97.4001 413.87C101.83 412.49 108.65 411.85 115.49 411.95C119.8 412.01 130.29 412.05 136.8 412.02H136.81C139.13 412.01 140.95 411.99 141.79 411.96C142.12 411.94 142.45 411.94 142.77 411.94C144.69 411.92 146.53 412.1 148.3 412.46C149.92 412.28 151.68 412.17 153.59 412.2C156.68 412.24 169.97 412.15 173.59 412.2C178.36 412.26 183.87 413.18 189.1 413.92C189.15 413.9 189.2 413.89 189.24 413.87L189.27 413.94C195.59 414.82 201.51 415.42 205.24 413.87L207.09 419.2Z" fill="white"/>
</mask>
<g mask="url(#mask8_127_2500)">
<path d="M105.33 415.57L74.7501 415.82L73.1301 419.2H103.22L105.33 415.57Z" fill="#96EAC0"/>
</g>
<mask id="mask9_127_2500" style="mask-type:luminance" maskUnits="userSpaceOnUse" x="73" y="411" width="135" height="9">
<path d="M207.09 419.2H73.1301L74.7501 415.82C74.7501 415.82 87.3701 416.98 97.4001 413.87C101.83 412.49 108.65 411.85 115.49 411.95C119.8 412.01 130.29 412.05 136.8 412.02H136.81C139.13 412.01 140.95 411.99 141.79 411.96C142.12 411.94 142.45 411.94 142.77 411.94C144.69 411.92 146.53 412.1 148.3 412.46C149.92 412.28 151.68 412.17 153.59 412.2C156.68 412.24 169.97 412.15 173.59 412.2C178.36 412.26 183.87 413.18 189.1 413.92C189.15 413.9 189.2 413.89 189.24 413.87L189.27 413.94C195.59 414.82 201.51 415.42 205.24 413.87L207.09 419.2Z" fill="white"/>
</mask>
<g mask="url(#mask9_127_2500)">
<path d="M104.084 417.713L105.33 415.57C105.33 415.57 109.418 417.483 113.901 417.352C118.384 417.22 125.463 411.669 139.067 411.939" stroke="#263238" stroke-miterlimit="10" stroke-linecap="round" stroke-linejoin="round"/>
</g>
<mask id="mask10_127_2500" style="mask-type:luminance" maskUnits="userSpaceOnUse" x="73" y="411" width="135" height="9">
<path d="M207.09 419.2H73.1301L74.7501 415.82C74.7501 415.82 87.3701 416.98 97.4001 413.87C101.83 412.49 108.65 411.85 115.49 411.95C119.8 412.01 130.29 412.05 136.8 412.02H136.81C139.13 412.01 140.95 411.99 141.79 411.96C142.12 411.94 142.45 411.94 142.77 411.94C144.69 411.92 146.53 412.1 148.3 412.46C149.92 412.28 151.68 412.17 153.59 412.2C156.68 412.24 169.97 412.15 173.59 412.2C178.36 412.26 183.87 413.18 189.1 413.92C189.15 413.9 189.2 413.89 189.24 413.87L189.27 413.94C195.59 414.82 201.51 415.42 205.24 413.87L207.09 419.2Z" fill="white"/>
</mask>
<g mask="url(#mask10_127_2500)">
<path d="M148.3 412.46C150.814 413.382 154.38 414.58 154.38 414.58C154.38 414.58 159 411.923 169.154 412.198" stroke="#263238" stroke-miterlimit="10" stroke-linecap="round" stroke-linejoin="round"/>
</g>
<mask id="mask11_127_2500" style="mask-type:luminance" maskUnits="userSpaceOnUse" x="73" y="411" width="135" height="9">
<path d="M207.09 419.2H73.1301L74.7501 415.82C74.7501 415.82 87.3701 416.98 97.4001 413.87C101.83 412.49 108.65 411.85 115.49 411.95C119.8 412.01 130.29 412.05 136.8 412.02H136.81C139.13 412.01 140.95 411.99 141.79 411.96C142.12 411.94 142.45 411.94 142.77 411.94C144.69 411.92 146.53 412.1 148.3 412.46C149.92 412.28 151.68 412.17 153.59 412.2C156.68 412.24 169.97 412.15 173.59 412.2C178.36 412.26 183.87 413.18 189.1 413.92C189.15 413.9 189.2 413.89 189.24 413.87L189.27 413.94C195.59 414.82 201.51 415.42 205.24 413.87L207.09 419.2Z" fill="white"/>
</mask>
<g mask="url(#mask11_127_2500)">
<path d="M105.33 415.57C105.33 415.57 89.5082 415.854 83.1792 415.985" stroke="#263238" stroke-miterlimit="10" stroke-linecap="round" stroke-linejoin="round"/>
</g>
<mask id="mask12_127_2500" style="mask-type:luminance" maskUnits="userSpaceOnUse" x="73" y="411" width="135" height="9">
<path d="M207.09 419.2H73.1301L74.7501 415.82C74.7501 415.82 87.3701 416.98 97.4001 413.87C101.83 412.49 108.65 411.85 115.49 411.95C119.8 412.01 130.29 412.05 136.8 412.02H136.81C139.13 412.01 140.95 411.99 141.79 411.96C142.12 411.94 142.45 411.94 142.77 411.94C144.69 411.92 146.53 412.1 148.3 412.46C149.92 412.28 151.68 412.17 153.59 412.2C156.68 412.24 169.97 412.15 173.59 412.2C178.36 412.26 183.87 413.18 189.1 413.92C189.15 413.9 189.2 413.89 189.24 413.87L189.27 413.94C195.59 414.82 201.51 415.42 205.24 413.87L207.09 419.2Z" fill="white"/>
</mask>
<g mask="url(#mask12_127_2500)">
<path d="M152.275 419.198C152.275 419.198 152.539 416.9 154.781 416.533C157.023 416.165 158.473 418.935 158.473 418.935" stroke="#263238" stroke-miterlimit="10" stroke-linecap="round" stroke-linejoin="round"/>
</g>
<mask id="mask13_127_2500" style="mask-type:luminance" maskUnits="userSpaceOnUse" x="73" y="411" width="135" height="9">
<path d="M207.09 419.2H73.1301L74.7501 415.82C74.7501 415.82 87.3701 416.98 97.4001 413.87C101.83 412.49 108.65 411.85 115.49 411.95C119.8 412.01 130.29 412.05 136.8 412.02H136.81C139.13 412.01 140.95 411.99 141.79 411.96C142.12 411.94 142.45 411.94 142.77 411.94C144.69 411.92 146.53 412.1 148.3 412.46C149.92 412.28 151.68 412.17 153.59 412.2C156.68 412.24 169.97 412.15 173.59 412.2C178.36 412.26 183.87 413.18 189.1 413.92C189.15 413.9 189.2 413.89 189.24 413.87L189.27 413.94C195.59 414.82 201.51 415.42 205.24 413.87L207.09 419.2Z" fill="white"/>
</mask>
<g mask="url(#mask13_127_2500)">
<path d="M154.38 414.58L154.78 416.532" stroke="#263238" stroke-miterlimit="10" stroke-linecap="round" stroke-linejoin="round"/>
</g>
<mask id="mask14_127_2500" style="mask-type:luminance" maskUnits="userSpaceOnUse" x="73" y="411" width="135" height="9">
<path d="M207.09 419.2H73.1301L74.7501 415.82C74.7501 415.82 87.3701 416.98 97.4001 413.87C101.83 412.49 108.65 411.85 115.49 411.95C119.8 412.01 130.29 412.05 136.8 412.02H136.81C139.13 412.01 140.95 411.99 141.79 411.96C142.12 411.94 142.45 411.94 142.77 411.94C144.69 411.92 146.53 412.1 148.3 412.46C149.92 412.28 151.68 412.17 153.59 412.2C156.68 412.24 169.97 412.15 173.59 412.2C178.36 412.26 183.87 413.18 189.1 413.92C189.15 413.9 189.2 413.89 189.24 413.87L189.27 413.94C195.59 414.82 201.51 415.42 205.24 413.87L207.09 419.2Z" fill="white"/>
</mask>
<g mask="url(#mask14_127_2500)">
<path d="M156.629 416.532C156.629 416.532 163.748 413.283 170.605 413.867" stroke="#263238" stroke-miterlimit="10" stroke-linecap="round" stroke-linejoin="round"/>
</g>
<mask id="mask15_127_2500" style="mask-type:luminance" maskUnits="userSpaceOnUse" x="73" y="411" width="135" height="9">
<path d="M207.09 419.2H73.1301L74.7501 415.82C74.7501 415.82 87.3701 416.98 97.4001 413.87C101.83 412.49 108.65 411.85 115.49 411.95C119.8 412.01 130.29 412.05 136.8 412.02H136.81C139.13 412.01 140.95 411.99 141.79 411.96C142.12 411.94 142.45 411.94 142.77 411.94C144.69 411.92 146.53 412.1 148.3 412.46C149.92 412.28 151.68 412.17 153.59 412.2C156.68 412.24 169.97 412.15 173.59 412.2C178.36 412.26 183.87 413.18 189.1 413.92C189.15 413.9 189.2 413.89 189.24 413.87L189.27 413.94C195.59 414.82 201.51 415.42 205.24 413.87L207.09 419.2Z" fill="white"/>
</mask>
<g mask="url(#mask15_127_2500)">
<path d="M153.703 416.924C153.066 416.428 142.384 413.127 131.439 415.569" stroke="#263238" stroke-miterlimit="10" stroke-linecap="round" stroke-linejoin="round"/>
</g>
<mask id="mask16_127_2500" style="mask-type:luminance" maskUnits="userSpaceOnUse" x="73" y="411" width="135" height="9">
<path d="M207.09 419.2H73.1301L74.7501 415.82C74.7501 415.82 87.3701 416.98 97.4001 413.87C101.83 412.49 108.65 411.85 115.49 411.95C119.8 412.01 130.29 412.05 136.8 412.02H136.81C139.13 412.01 140.95 411.99 141.79 411.96C142.12 411.94 142.45 411.94 142.77 411.94C144.69 411.92 146.53 412.1 148.3 412.46C149.92 412.28 151.68 412.17 153.59 412.2C156.68 412.24 169.97 412.15 173.59 412.2C178.36 412.26 183.87 413.18 189.1 413.92C189.15 413.9 189.2 413.89 189.24 413.87L189.27 413.94C195.59 414.82 201.51 415.42 205.24 413.87L207.09 419.2Z" fill="white"/>
</mask>
<g mask="url(#mask16_127_2500)">
<path d="M152.275 418.275C152.275 418.275 143.265 416.561 135.44 417.748" stroke="#263238" stroke-miterlimit="10" stroke-linecap="round" stroke-linejoin="round"/>
</g>
<mask id="mask17_127_2500" style="mask-type:luminance" maskUnits="userSpaceOnUse" x="73" y="411" width="135" height="9">
<path d="M207.09 419.2H73.1301L74.7501 415.82C74.7501 415.82 87.3701 416.98 97.4001 413.87C101.83 412.49 108.65 411.85 115.49 411.95C119.8 412.01 130.29 412.05 136.8 412.02H136.81C139.13 412.01 140.95 411.99 141.79 411.96C142.12 411.94 142.45 411.94 142.77 411.94C144.69 411.92 146.53 412.1 148.3 412.46C149.92 412.28 151.68 412.17 153.59 412.2C156.68 412.24 169.97 412.15 173.59 412.2C178.36 412.26 183.87 413.18 189.1 413.92C189.15 413.9 189.2 413.89 189.24 413.87L189.27 413.94C195.59 414.82 201.51 415.42 205.24 413.87L207.09 419.2Z" fill="white"/>
</mask>
<g mask="url(#mask17_127_2500)">
<path d="M157.635 417.774C157.635 417.774 166.282 415.053 175.96 416.532C185.638 418.011 194.245 417.747 194.245 417.747" stroke="#263238" stroke-miterlimit="10" stroke-linecap="round" stroke-linejoin="round"/>
</g>
<path d="M207.09 419.2H73.1301L74.7501 415.82C74.7501 415.82 87.3701 416.98 97.4001 413.87C101.83 412.49 108.65 411.85 115.49 411.95C119.8 412.01 130.29 412.05 136.8 412.02H136.81C139.13 412.01 140.95 411.99 141.79 411.96C142.12 411.94 142.45 411.94 142.77 411.94C144.69 411.92 146.53 412.1 148.3 412.46C149.92 412.28 151.68 412.17 153.59 412.2C156.68 412.24 169.97 412.15 173.59 412.2C178.36 412.26 183.87 413.18 189.1 413.92C189.15 413.9 189.2 413.89 189.24 413.87L189.27 413.94C195.59 414.82 201.51 415.42 205.24 413.87L207.09 419.2Z" stroke="#263238" stroke-miterlimit="10" stroke-linecap="round" stroke-linejoin="round"/>
<path d="M171.16 340.6V344.15C171.16 344.15 167.51 346.7 162.76 349.24C156.35 343.35 155.44 332.16 155.44 332.16L171.16 340.6Z" fill="#263238"/>
<path d="M143.835 320.151C136.299 308.998 137.816 288.099 147.527 276.769C161.769 260.154 198.933 272.286 198.895 295.779C198.89 298.92 198.587 302.2 198.059 305.518C197.566 308.618 194.877 311.752 194.052 314.838C193.227 317.924 193.558 322.801 193.228 325.872C192.495 332.703 183.044 346.251 180.476 347.718C176.895 349.762 157.55 344.286 153.33 331.884" fill="white"/>
<path d="M143.835 320.151C136.299 308.998 137.816 288.099 147.527 276.769C161.769 260.154 198.933 272.286 198.895 295.779C198.89 298.92 198.587 302.2 198.059 305.518C197.566 308.618 194.877 311.752 194.052 314.838C193.227 317.924 193.558 322.801 193.228 325.872C192.495 332.703 183.044 346.251 180.476 347.718C176.895 349.762 157.55 344.286 153.33 331.884" stroke="#263238" stroke-miterlimit="10" stroke-linecap="round" stroke-linejoin="round"/>
<path d="M170.209 306.37C170.209 306.37 175.484 304.454 180.231 306.37" stroke="#263238" stroke-miterlimit="10" stroke-linecap="round" stroke-linejoin="round"/>
<path d="M191.044 306.37C191.044 306.37 194.88 304.454 197.445 306.37" stroke="#263238" stroke-miterlimit="10" stroke-linecap="round" stroke-linejoin="round"/>
<path d="M175.14 315.328C174.863 316.684 173.944 317.641 173.088 317.466C172.232 317.291 171.762 316.05 172.04 314.694C172.317 313.338 173.236 312.381 174.092 312.556C174.948 312.731 175.417 313.972 175.14 315.328Z" fill="#263238"/>
<path d="M192.099 315.328C191.822 316.684 190.903 317.641 190.047 317.466C189.191 317.291 188.721 316.05 188.999 314.694C189.276 313.338 190.195 312.381 191.051 312.556C191.907 312.731 192.376 313.972 192.099 315.328Z" fill="#263238"/>
<path d="M189.33 308.418C189.33 308.418 186.824 312.77 186.561 316.462C186.297 320.154 190.517 327.671 189.33 330.045C188.143 332.419 182.868 332.287 181.154 330.836" fill="white"/>
<path d="M189.33 308.418C189.33 308.418 186.824 312.77 186.561 316.462C186.297 320.154 190.517 327.671 189.33 330.045C188.143 332.419 182.868 332.287 181.154 330.836" stroke="#263238" stroke-miterlimit="10" stroke-linecap="round" stroke-linejoin="round"/>
<path d="M182.077 335.582C182.077 335.582 176.67 336.505 171.923 334.131" stroke="#263238" stroke-miterlimit="10" stroke-linecap="round" stroke-linejoin="round"/>
<path d="M151.404 309.868C151.404 309.868 153.857 307.494 156.758 308.417C159.659 309.34 160.187 317.252 160.187 317.252L162.297 315.01C162.297 315.01 161.506 310.543 164.671 304.271C167.836 297.999 166.253 290.614 166.253 290.614C166.253 290.614 171.696 292.46 173.59 296.68C173.59 296.68 175.652 292.197 173.59 288.768C173.59 288.768 182.077 290.878 184.187 297.208C184.187 297.208 185.857 292.461 185.286 290.087C185.286 290.087 191.045 291.933 193.154 297.472C193.154 297.472 195.072 293.252 194.245 289.824C194.245 289.824 196.565 291.804 197.446 297.736C197.446 297.736 200.154 292.989 198.896 286.132C198.896 286.132 201.858 289.56 202.385 292.462C202.385 292.462 204.823 284.023 190.549 272.682C176.275 261.341 151.85 263.914 148.055 272.682C148.055 272.682 149.315 266.222 151.85 263.914C151.85 263.914 144.796 267.033 144.996 273.474C144.996 273.474 138.824 272.683 135.659 276.639C135.659 276.639 138.824 276.375 141.461 276.903C141.461 276.903 133.022 281.914 133.549 293.782C134.076 305.65 141.461 322.793 141.461 322.793L147.241 321.105C147.241 321.103 148.161 313.033 151.404 309.868Z" fill="#263238"/>
<path d="M157.813 312.769C157.813 312.769 153.329 304.857 150.956 304.33C148.582 303.802 144.099 306.967 145.154 311.187C146.209 315.407 147 322.528 148.319 323.319C149.638 324.11 151.748 328.857 153.857 327.539C155.967 326.22 154.384 324.374 154.384 324.374" fill="white"/>
<path d="M157.813 312.769C157.813 312.769 153.329 304.857 150.956 304.33C148.582 303.802 144.099 306.967 145.154 311.187C146.209 315.407 147 322.528 148.319 323.319C149.638 324.11 151.748 328.857 153.857 327.539C155.967 326.22 154.384 324.374 154.384 324.374" stroke="#263238" stroke-miterlimit="10" stroke-linecap="round" stroke-linejoin="round"/>
<path d="M207.923 373.928C207.923 373.928 207.396 376.382 206.175 379.673" stroke="#263238" stroke-miterlimit="10" stroke-linecap="round" stroke-linejoin="round"/>
<path d="M204.574 383.491C202.969 386.886 200.726 390.498 197.714 393.062" stroke="#263238" stroke-miterlimit="10" stroke-linecap="round" stroke-linejoin="round"/>
<path d="M232.978 394.264C231.607 394.082 228.821 395.808 226.264 398.043" stroke="#263238" stroke-miterlimit="10" stroke-linecap="round" stroke-linejoin="round"/>
<path d="M224.401 399.806C222.383 401.879 220.846 404.069 220.846 405.472" stroke="#263238" stroke-miterlimit="10" stroke-linecap="round" stroke-linejoin="round"/>
<path d="M78.9561 388.868C78.9561 388.868 84.6521 390.45 84.7051 395.329" stroke="#263238" stroke-miterlimit="10" stroke-linecap="round" stroke-linejoin="round"/>
<path d="M100.319 362.231C100.319 362.231 101.518 363.506 102.894 365.607" stroke="#263238" stroke-miterlimit="10" stroke-linecap="round" stroke-linejoin="round"/>
<path d="M105.143 369.726C106.15 372.015 106.912 374.673 106.912 377.472C106.912 385.703 104.538 390.45 104.538 390.45" stroke="#263238" stroke-miterlimit="10" stroke-linecap="round" stroke-linejoin="round"/>
<path d="M134.868 354.156C134.868 354.156 136.679 355.932 139.699 358.009" stroke="#263238" stroke-miterlimit="10" stroke-linecap="round" stroke-linejoin="round"/>
<path d="M144.717 360.996C149.83 363.578 156.435 365.523 163.3 363.813" stroke="#263238" stroke-miterlimit="10" stroke-linecap="round" stroke-linejoin="round"/>
<g opacity="0.2">
<path d="M155.44 273.088C155.44 273.088 157.676 272.691 160.842 272.738" stroke="white" stroke-miterlimit="10" stroke-linecap="round" stroke-linejoin="round"/>
<path d="M163.466 272.878C168.363 273.337 174.381 275.05 178.121 280.208" stroke="white" stroke-miterlimit="10" stroke-linecap="round" stroke-linejoin="round"/>
<path d="M167.308 269.08C167.308 269.08 176.477 269.182 183.053 273.775" stroke="white" stroke-miterlimit="10" stroke-linecap="round" stroke-linejoin="round"/>
<path d="M185.632 275.982C186.759 277.173 187.716 278.571 188.407 280.209" stroke="white" stroke-miterlimit="10" stroke-linecap="round" stroke-linejoin="round"/>
<path d="M153.066 277.044C153.066 277.044 162.079 280.209 165.198 285.879" stroke="white" stroke-miterlimit="10" stroke-linecap="round" stroke-linejoin="round"/>
<path d="M148.714 280.209C148.714 280.209 151.595 283.915 152.839 289.159" stroke="white" stroke-miterlimit="10" stroke-linecap="round" stroke-linejoin="round"/>
<path d="M153.4 293.66C153.409 294.815 153.308 296.008 153.066 297.22" stroke="white" stroke-miterlimit="10" stroke-linecap="round" stroke-linejoin="round"/>
<path d="M142.648 283.901C142.648 283.901 142.074 285.278 141.501 287.505" stroke="white" stroke-miterlimit="10" stroke-linecap="round" stroke-linejoin="round"/>
<path d="M140.785 290.951C140.35 293.69 140.147 296.986 140.67 300.385" stroke="white" stroke-miterlimit="10" stroke-linecap="round" stroke-linejoin="round"/>
</g>
<path d="M260.67 436.982H386.868V419.198H35.3149V436.982H106.385" fill="white"/>
<path d="M260.67 436.982H386.868V419.198H35.3149V436.982H106.385" stroke="#263238" stroke-miterlimit="10" stroke-linecap="round" stroke-linejoin="round"/>
<path d="M251.612 436.982H233.691" stroke="#263238" stroke-miterlimit="10" stroke-linecap="round" stroke-linejoin="round"/>
</svg>
